<?xml version="1.0" standalone="no"?>
<!DOCTYPE svg PUBLIC "-//W3C//DTD SVG 20010904//EN"
 "http://www.w3.org/TR/2001/REC-SVG-20010904/DTD/svg10.dtd">
<svg version="1.0" xmlns="http://www.w3.org/2000/svg"
 width="100.000000pt" height="100.000000pt" viewBox="0 0 100.000000 100.000000"
 preserveAspectRatio="xMidYMid meet">
<metadata>
Created by potrace 1.10, written by Peter Selinger 2001-2011
</metadata>
<g transform="translate(0.000000,100.000000) scale(0.100000,-0.100000)"
fill="white" stroke="none">
<path d="M125 928 c-3 -7 -4 -204 -3 -438 l3 -425 225 1 c208 0 229 2 280 22
111 44 185 123 226 242 28 80 26 273 -3 352 -43 116 -110 186 -222 230 -50 20
-78 22 -278 26 -181 3 -224 1 -228 -10z m513 -62 c119 -55 187 -162 199 -316
15 -201 -56 -350 -200 -416 -61 -28 -66 -29 -269 -32 l-208 -4 0 402 0 402
208 -4 c203 -3 208 -4 270 -32z"/>
<path d="M285 807 c-3 -7 -4 -149 -3 -317 l3 -305 99 -3 c130 -4 193 14 250
72 60 59 81 124 81 246 0 120 -21 183 -80 244 -30 32 -58 49 -96 60 -66 20
-247 22 -254 3z m236 -38 c53 -16 103 -61 131 -116 19 -41 23 -63 23 -148 0
-121 -19 -178 -75 -229 -48 -43 -92 -56 -197 -56 l-83 0 0 280 0 280 81 0 c45
0 99 -5 120 -11z"/>
</g>
</svg>
